<?xml version="1.0" encoding="UTF-8"?>
<svg id="Layer_1" data-name="Layer 1" xmlns="http://www.w3.org/2000/svg" viewBox="0 0 134 29">
  <defs>
    <style>
      .cls-1 {
        fill: #fafafa;
      }
    </style>
  </defs>
  <path class="cls-1" d="M26.6,14.02s-.03-.02-.05-.02-1.94.43-3.64-.51c-1.61-.89-3.17-.77-3.43-.74.18-.28.87-1.23,2.01-1.51,1.4-.36,1.56-1.21,1.56-1.24,0-.02,0-.04-.02-.05-.02-.01-.04-.01-.06,0-.43.31-1.71.68-2.67.5-.78-.15-1.42-.03-1.66.02.07-.42.4-1.54,2.03-2.77,2.15-1.63,2.16-3.26,2.09-3.43,0-.02-.03-.03-.04-.03-.02,0-.04,0-.05.02-.01.02-1.07,1.79-2.89,2.43-1.6.56-2.6,1.74-2.85,2.05-.06-.36-.2-1.53.4-2.6.74-1.33.29-2.05.27-2.07-.01-.02-.03-.03-.06-.02-.02,0-.04.02-.04.04-.09.55-.74,1.79-1.54,2.41-.67.53-1.05,1.12-1.16,1.33-.18-.25-.81-1.29-.42-3.59.47-2.79-.58-3.96-.75-4.02h-.05s-.02.03-.02.05.4,2.09-.47,3.92c-.81,1.68-.72,3.35-.69,3.68-.28-.22-1.12-.95-1.38-2.16-.33-1.51-1.12-1.68-1.15-1.68-.02,0-.04,0-.05.02-.01.02-.01.04,0,.06.29.46.63,1.84.46,2.88-.15.91-.01,1.63.04,1.84-.41-.08-1.44-.44-2.57-2.18-1.51-2.32-3.03-2.32-3.19-2.24-.02,0-.03.03-.03.04,0,.02,0,.04.02.05.02.01,1.67,1.15,2.26,3.12.5,1.63,1.5,2.68,1.85,3.02-.38.08-1.42.18-2.38-.44-1.23-.8-1.9-.31-1.92-.29-.02.01-.03.03-.02.06,0,.02.02.04.04.04.51.1,1.66.8,2.24,1.65.52.78,1.12,1.17,1.27,1.27-.99.82-2.91.5-3.29.42-2.59-.51-3.67.63-3.73.81v.05s.03.02.05.02,1.94-.43,3.64.51c1.17.66,2.32.77,2.96.77.17,0,.3,0,.39-.01-.2.3-.88,1.21-2,1.49-1.4.36-1.56,1.21-1.56,1.24,0,.02,0,.04.02.05.02.01.04.01.06,0,.43-.32,1.71-.68,2.67-.5.8.15,1.45.02,1.68-.03-.07.42-.4,1.54-2.03,2.77-2.15,1.63-2.16,3.26-2.09,3.43,0,.02.03.03.04.03.02,0,.04,0,.05-.02,0-.02,1.07-1.79,2.89-2.43,1.57-.55,2.56-1.68,2.84-2.03.06.38.18,1.53-.41,2.58-.74,1.33-.29,2.05-.27,2.07,0,.01.03.02.04.02h0s.04-.02.04-.04c.09-.55.74-1.79,1.54-2.41.69-.54,1.06-1.15,1.17-1.34.17.23.82,1.27.43,3.6-.47,2.79.58,3.96.75,4.02h.02s.02,0,.03-.01c.01-.01.02-.03.02-.05s-.4-2.09.47-3.92c.8-1.67.72-3.32.69-3.66.32.25,1.11.97,1.36,2.14.33,1.51,1.12,1.68,1.15,1.68.02,0,.03,0,.04-.02.01-.02.01-.04,0-.06-.29-.46-.63-1.84-.46-2.88.15-.91.01-1.63-.04-1.84.37.06,1.43.41,2.58,2.18,1.28,1.95,2.55,2.26,3.02,2.26.09,0,.14,0,.17-.02.02,0,.03-.03.03-.04s0-.04-.02-.05c-.02-.01-1.67-1.15-2.26-3.11-.49-1.62-1.46-2.65-1.85-3.02.36-.06,1.41-.17,2.36.44.55.36.98.45,1.3.45.4,0,.61-.16.62-.17.02-.01.03-.03.02-.06,0-.02-.02-.04-.04-.04-.51-.1-1.66-.8-2.24-1.66-.47-.7-1.02-1.11-1.22-1.24.27-.22,1.24-.84,3.3-.43,2.59.51,3.67-.63,3.73-.81v-.05l.04.03ZM12.56,20.24c-1.5-.33-2.79-1.28-3.64-2.66l-.07-.13c-.36-.61-.61-1.28-.75-1.98-.09-.43-.13-.87-.13-1.32,0-.39.03-.79.1-1.16,0-.02.04-.19.04-.19.15-.71.41-1.39.78-2.01.42-.7.96-1.3,1.6-1.77.02-.01.13-.1.13-.1.57-.4,1.2-.68,1.86-.84.02,0,.2-.04.2-.04.7-.14,1.44-.14,2.15,0,.73.15,1.42.44,2.05.87h.02s0,.01.01.01c1.28.89,2.16,2.26,2.5,3.85,0,.02.02.09.02.1.08.42.12.85.12,1.29,0,.4-.04.8-.11,1.19-.14.79-.42,1.52-.82,2.2-.42.69-.95,1.28-1.59,1.76,0,0-.01.01-.01.02h-.02s0,0-.01.01c-.61.44-1.28.75-1.99.92-.02,0-.16.03-.16.03-.7.14-1.44.14-2.15,0h-.05l-.05-.02-.03-.02Z"/>
  <path class="cls-1" d="M33.98,19.74c-.97-.65-1.7-1.47-2.18-2.46-.49-.99-.73-2.01-.73-3.03v-.36c0-1.05.24-2.07.72-3.04.48-.98,1.21-1.78,2.18-2.4.97-.63,2.14-.94,3.51-.94,1.22,0,2.28.25,3.17.74.9.5,1.61,1.14,2.14,1.94.53.8.87,1.67,1.02,2.6h-2.59c-.23-.88-.68-1.58-1.34-2.11s-1.46-.79-2.4-.79c-.76,0-1.44.18-2.04.55-.59.37-1.05.86-1.37,1.51-.32.64-.48,1.36-.48,2.16s.16,1.47.48,2.1.78,1.15,1.37,1.53c.59.38,1.27.57,2.04.57.93,0,1.73-.27,2.38-.81.66-.54,1.1-1.24,1.34-2.11h2.61c-.17.92-.52,1.79-1.05,2.6-.53.81-1.25,1.47-2.14,1.97-.89.51-1.94.75-3.14.75-1.36,0-2.53-.32-3.5-.97h0Z"/>
  <path class="cls-1" d="M45.05,11.4h2.51v1.09c.34-.44.73-.78,1.17-1,.44-.23.97-.35,1.6-.35h.47v2.22h-1.03c-.79,0-1.35.15-1.69.46s-.51.84-.51,1.6v4.93h-2.53v-8.96h0Z"/>
  <path class="cls-1" d="M53.62,20.01c-.73-.45-1.27-1.03-1.63-1.75-.36-.71-.54-1.46-.54-2.23v-.29c0-.79.19-1.54.56-2.25.37-.71.92-1.29,1.64-1.74.72-.44,1.58-.66,2.59-.66s1.87.23,2.6.66c.73.44,1.27,1.02,1.64,1.74s.56,1.47.56,2.25v.36c0,.12,0,.24-.02.36h-7.03c.09.64.33,1.12.72,1.47.39.35.91.53,1.54.54.51-.01.94-.14,1.3-.38.35-.24.61-.58.78-1.02h2.59c-.14.66-.41,1.26-.81,1.8-.39.54-.92.98-1.57,1.32-.65.33-1.42.51-2.29.51-1.03,0-1.91-.23-2.63-.68h0ZM57.58,13.68c-.37-.25-.81-.38-1.35-.38s-.98.13-1.34.38c-.36.25-.62.61-.77,1.08h4.24c-.16-.46-.42-.82-.78-1.08Z"/>
  <path class="cls-1" d="M64.45,20.01c-.73-.45-1.27-1.03-1.63-1.75s-.54-1.46-.54-2.23v-.29c0-.79.19-1.54.56-2.25s.92-1.29,1.64-1.74c.72-.44,1.58-.66,2.59-.66.93,0,1.74.18,2.43.56.69.38,1.23.87,1.62,1.5.39.63.63,1.29.72,2h-2.54c-.11-.59-.35-1.06-.73-1.37s-.88-.47-1.5-.47c-.72,0-1.28.23-1.68.68-.4.45-.6,1.09-.6,1.9s.2,1.42.6,1.88c.4.45.96.69,1.69.7.53-.01.98-.14,1.34-.39s.62-.6.77-1.07h2.58c-.14.66-.41,1.26-.81,1.82-.39.56-.92,1-1.58,1.35-.66.34-1.43.51-2.3.51-1.03,0-1.91-.23-2.63-.68Z"/>
  <path class="cls-1" d="M73.08,11.4h2.51v8.96h-2.51v-8.96Z"/>
  <path class="cls-1" d="M77.06,11.41h2.46v1.06c.18-.3.52-.59,1.03-.88.51-.29.95-.44,1.33-.44h.05c1.25,0,2.17.45,2.76,1.36.62-.91,1.55-1.36,2.79-1.36h.07c1.14,0,2.01.37,2.62,1.09.6.73.91,1.76.91,3.09v5.03h-2.53v-5.36c0-.51-.13-.89-.38-1.19-.25-.29-.61-.43-1.08-.43-.51,0-.91.15-1.2.44-.29.29-.43.71-.43,1.26v5.27h-2.23l.02-5.31c0-.53-.17-.93-.51-1.22-.34-.29-.76-.43-1.27-.43-.58,0-1.04.14-1.39.41-.35.27-.52.7-.52,1.29v5.27h-2.49v-8.96h-.01Z"/>
  <path class="cls-1" d="M92.31,11.4h2.51v8.96h-2.51v-8.96Z"/>
  <path class="cls-1" d="M98.45,20.01c-.73-.45-1.27-1.03-1.63-1.75s-.54-1.46-.54-2.23v-.29c0-.79.19-1.54.56-2.25.37-.71.92-1.29,1.64-1.74.72-.44,1.58-.66,2.59-.66s1.87.23,2.6.66c.73.44,1.27,1.02,1.64,1.74.37.71.56,1.47.56,2.25v.36c0,.12,0,.24-.02.36h-7.03c.09.64.33,1.12.72,1.47.39.35.91.53,1.54.54.51-.01.94-.14,1.3-.38.35-.24.61-.58.78-1.02h2.59c-.14.66-.41,1.26-.81,1.8-.39.54-.92.98-1.57,1.32-.65.33-1.42.51-2.29.51-1.03,0-1.91-.23-2.63-.68h0ZM102.42,13.68c-.37-.25-.81-.38-1.35-.38s-.98.13-1.34.38c-.36.25-.62.61-.77,1.08h4.24c-.16-.46-.42-.82-.78-1.08Z"/>
  <path class="cls-1" d="M107.11,11.4h2.49v1.06c.28-.38.64-.7,1.09-.95.45-.25.94-.38,1.49-.38,1.22,0,2.14.37,2.75,1.09.61.73.92,1.76.92,3.09v5.03h-2.51v-5.34c0-.51-.17-.89-.52-1.19-.35-.29-.79-.44-1.32-.44s-1,.15-1.35.46c-.34.31-.52.73-.52,1.25v5.25h-2.53v-8.96h0Z"/>
  <path class="cls-1" d="M119.22,19.57c-.64-.52-.96-1.37-.96-2.53v-3.62h-1.48v-2.03h1.48v-3.58h2.53v3.58h1.79v2.03h-3.21v.14c.33,0,.65.1.96.29.3.19.46.47.46.84v2.52c0,.6.32.92.96.92h.73v2.22h-.6c-1.14,0-2.03-.26-2.67-.78h.01Z"/>
  <path class="cls-1" d="M125.68,20.01c-.73-.45-1.27-1.03-1.63-1.75s-.54-1.46-.54-2.23v-.29c0-.79.19-1.54.56-2.25.37-.71.92-1.29,1.64-1.74.72-.44,1.58-.66,2.59-.66s1.87.23,2.6.66c.73.44,1.27,1.02,1.64,1.74s.56,1.47.56,2.25v.29c0,.78-.18,1.52-.54,2.23s-.9,1.29-1.63,1.75c-.73.45-1.6.68-2.62.68s-1.91-.23-2.63-.68ZM129.99,17.77c.4-.45.6-1.08.6-1.88s-.2-1.44-.6-1.9c-.4-.45-.96-.68-1.69-.68s-1.28.23-1.68.68c-.4.45-.6,1.09-.6,1.9s.2,1.42.6,1.88c.4.45.96.69,1.69.7.72-.01,1.28-.25,1.68-.7Z"/>
  <path class="cls-1" d="M74.17,9.41h-2.51v2.35h2.51v-2.35Z"/>
  <path class="cls-1" d="M93.4,9.41h-2.51v2.35h2.51v-2.35Z"/>
</svg>