<?xml version="1.0" encoding="UTF-8"?>
<svg id="Layer_1" data-name="Layer 1" xmlns="http://www.w3.org/2000/svg" viewBox="0 0 30.04 29">
  <defs>
    <style>
      .cls-1 {
        fill: #fafafa;
      }
    </style>
  </defs>
  <path class="cls-1" d="M27.89,14.41s-.03-.02-.05-.02-1.94.43-3.64-.51c-1.61-.89-3.17-.77-3.43-.74.18-.28.87-1.23,2.01-1.51,1.4-.36,1.56-1.21,1.56-1.24,0-.02,0-.04-.02-.05-.02-.01-.04-.01-.06,0-.43.31-1.71.68-2.67.5-.78-.15-1.42-.03-1.66.02.07-.42.4-1.54,2.03-2.77,2.15-1.63,2.16-3.26,2.09-3.43,0-.02-.03-.03-.04-.03-.02,0-.04,0-.05.02-.01.02-1.07,1.79-2.89,2.43-1.6.56-2.6,1.74-2.85,2.05-.06-.36-.2-1.53.4-2.6.74-1.33.29-2.05.27-2.07-.01-.02-.03-.03-.06-.02-.02,0-.04.02-.04.04-.09.55-.74,1.79-1.54,2.41-.67.53-1.05,1.12-1.16,1.33-.18-.25-.81-1.29-.42-3.59.47-2.79-.58-3.96-.75-4.02h-.05s-.02.03-.02.05.4,2.09-.47,3.92c-.81,1.68-.72,3.35-.69,3.68-.28-.22-1.12-.95-1.38-2.16-.33-1.51-1.12-1.68-1.15-1.68-.02,0-.04,0-.05.02-.01.02-.01.04,0,.06.29.46.63,1.84.46,2.88-.15.91-.01,1.63.04,1.84-.41-.08-1.44-.44-2.57-2.18-1.51-2.32-3.03-2.32-3.19-2.24-.02,0-.03.03-.03.04,0,.02,0,.04.02.05.02.01,1.67,1.15,2.26,3.12.5,1.63,1.5,2.68,1.85,3.02-.38.08-1.42.18-2.38-.44-1.23-.8-1.9-.31-1.92-.29-.02.01-.03.03-.02.06,0,.02.02.04.04.04.51.1,1.66.8,2.24,1.65.52.78,1.12,1.17,1.27,1.27-.99.82-2.91.5-3.29.42-2.59-.51-3.67.63-3.73.81v.05s.03.02.05.02,1.94-.43,3.64.51c1.17.66,2.32.77,2.96.77.17,0,.3,0,.39-.01-.2.3-.88,1.21-2,1.49-1.4.36-1.56,1.21-1.56,1.24,0,.02,0,.04.02.05.02.01.04.01.06,0,.43-.32,1.71-.68,2.67-.5.8.15,1.45.02,1.68-.03-.07.42-.4,1.54-2.03,2.77-2.15,1.63-2.16,3.26-2.09,3.43,0,.02.03.03.04.03.02,0,.04,0,.05-.02,0-.02,1.07-1.79,2.89-2.43,1.57-.55,2.56-1.68,2.84-2.03.06.38.18,1.53-.41,2.58-.74,1.33-.29,2.05-.27,2.07,0,.01.03.02.04.02h0s.04-.02.04-.04c.09-.55.74-1.79,1.54-2.41.69-.54,1.06-1.15,1.17-1.34.17.23.82,1.27.43,3.6-.47,2.79.58,3.96.75,4.02h.02s.02,0,.03-.01c.01-.01.02-.03.02-.05s-.4-2.09.47-3.92c.8-1.67.72-3.32.69-3.66.32.25,1.11.97,1.36,2.14.33,1.51,1.12,1.68,1.15,1.68.02,0,.03,0,.04-.02.01-.02.01-.04,0-.06-.29-.46-.63-1.84-.46-2.88.15-.91.01-1.63-.04-1.84.37.06,1.43.41,2.58,2.18,1.28,1.95,2.55,2.26,3.02,2.26.09,0,.14,0,.17-.02.02,0,.03-.03.03-.04s0-.04-.02-.05c-.02-.01-1.67-1.15-2.26-3.11-.49-1.62-1.46-2.65-1.85-3.02.36-.06,1.41-.17,2.36.44.55.36.98.45,1.3.45.4,0,.61-.16.62-.17.02-.01.03-.03.02-.06,0-.02-.02-.04-.04-.04-.51-.1-1.66-.8-2.24-1.66-.47-.7-1.02-1.11-1.22-1.24.27-.22,1.24-.84,3.3-.43,2.59.51,3.67-.63,3.73-.81v-.05l.04.03ZM13.85,20.63c-1.5-.33-2.79-1.28-3.64-2.66l-.07-.13c-.36-.61-.61-1.28-.75-1.98-.09-.43-.13-.87-.13-1.32,0-.39.03-.79.1-1.16,0-.02.04-.19.04-.19.15-.71.41-1.39.78-2.01.42-.7.96-1.3,1.6-1.77.02-.01.13-.1.13-.1.57-.4,1.2-.68,1.86-.84.02,0,.2-.04.2-.04.7-.14,1.44-.14,2.15,0,.73.15,1.42.44,2.05.87h.02s0,.01.01.01c1.28.89,2.16,2.26,2.5,3.85,0,.02.02.09.02.1.08.42.12.85.12,1.29,0,.4-.04.8-.11,1.19-.14.79-.42,1.52-.82,2.2-.42.69-.95,1.28-1.59,1.76,0,0-.01.01-.01.02h-.02s0,0-.01.01c-.61.44-1.28.75-1.99.92-.02,0-.16.03-.16.03-.7.14-1.44.14-2.15,0h-.05l-.05-.02-.03-.02Z"/>
</svg>